<svg xmlns="http://www.w3.org/2000/svg" width="42" height="32.459" viewBox="0 0 42 32.459">
  <g id="Grupo_10289" data-name="Grupo 10289" transform="translate(-28.78 -0.066)">
    <path id="Sustracción_2" data-name="Sustracción 2" d="M42,13.708H0V0H42V13.708ZM21.909,1.687,17.833,12.019h2.4l.842-2.31h4.036l.821,2.311h2.464L24.35,1.687Zm7.449,0V12.019h8.2V10.108H31.732V7.578h5.239V5.809H31.714V3.6h5.721V1.687Zm-20.485,0V12.019h2.375v-3.7h2.5a4.916,4.916,0,0,0,1.725-.281A3.27,3.27,0,0,0,16.634,7.3a2.7,2.7,0,0,0,.651-1.064,3.5,3.5,0,0,0,.21-1.225,4.043,4.043,0,0,0-.21-1.23,2.948,2.948,0,0,0-.651-1.066,3.215,3.215,0,0,0-1.157-.743,4.907,4.907,0,0,0-1.725-.281Zm-4.482,0V12.019h2.38V1.687ZM24.5,8.041H21.7l1.408-3.8h.017l1.367,3.8ZM13.1,6.553H11.248v-3.1H13.1a4.819,4.819,0,0,1,.774.061,1.767,1.767,0,0,1,.672.218,1.232,1.232,0,0,1,.464.464,1.758,1.758,0,0,1,.17.807,1.485,1.485,0,0,1-.17.8,1.383,1.383,0,0,1-.464.463,2.2,2.2,0,0,1-.672.218A4.826,4.826,0,0,1,13.1,6.553Z" transform="translate(28.784 18.818)" fill="#fff"/>
    <g id="Grupo_215" data-name="Grupo 215" transform="translate(28.78 0.066)">
      <g id="Grupo_214" data-name="Grupo 214">
        <path id="Trazado_118" data-name="Trazado 118" d="M170.869,18.469h-4.311V16.7h7.55v1.769l-4.669,5.025h4.984v1.769H166.2V23.493Z" transform="translate(-166.2 -13.424)" fill="#fff"/>
        <path id="Trazado_119" data-name="Trazado 119" d="M210.871,22.413a2.293,2.293,0,0,0,1.6.523,2.224,2.224,0,0,0,1.283-.362,1.509,1.509,0,0,0,.652-.744h2.166a3.932,3.932,0,0,1-1.6,2.211,4.849,4.849,0,0,1-2.608.663,5.215,5.215,0,0,1-1.914-.322,3.842,3.842,0,0,1-1.43-.925,3.914,3.914,0,0,1-.9-1.427A5.079,5.079,0,0,1,207.8,20.2a4.534,4.534,0,0,1,.337-1.789,4.131,4.131,0,0,1,2.376-2.372,4.687,4.687,0,0,1,1.872-.342,4.47,4.47,0,0,1,2,.422,3.949,3.949,0,0,1,1.388,1.126,4.534,4.534,0,0,1,.778,1.628,5.741,5.741,0,0,1,.168,1.909h-6.457A2.4,2.4,0,0,0,210.871,22.413Zm2.8-4.522a1.8,1.8,0,0,0-1.346-.462,2.394,2.394,0,0,0-.988.181,2.09,2.09,0,0,0-.631.462,1.726,1.726,0,0,0-.337.6,2,2,0,0,0-.105.563h4A2.624,2.624,0,0,0,213.668,17.891Z" transform="translate(-199.051 -12.625)" fill="#fff"/>
        <path id="Trazado_120" data-name="Trazado 120" d="M264.649,24.926a2.992,2.992,0,0,1-.631,1.226,3.686,3.686,0,0,1-1.409.965,6.881,6.881,0,0,1-3.807.241,4.16,4.16,0,0,1-1.241-.482,2.812,2.812,0,0,1-.925-.844,2.23,2.23,0,0,1-.421-1.246h2.44a1.34,1.34,0,0,0,.673.925,2.382,2.382,0,0,0,1.157.261,1.807,1.807,0,0,0,1.514-.6,2.361,2.361,0,0,0,.463-1.507V22.735h-.042a2.456,2.456,0,0,1-1.136,1,3.715,3.715,0,0,1-1.556.322A4.1,4.1,0,0,1,258,23.72a3.362,3.362,0,0,1-1.2-.925,3.7,3.7,0,0,1-.694-1.367,6.16,6.16,0,0,1-.21-1.668,5.248,5.248,0,0,1,.252-1.608,4.333,4.333,0,0,1,.736-1.367,3.5,3.5,0,0,1,2.86-1.286,3.457,3.457,0,0,1,1.556.322,2.532,2.532,0,0,1,1.115,1.065h.042V15.741H264.8V23.76A6.482,6.482,0,0,1,264.649,24.926Zm-3.386-2.854a1.832,1.832,0,0,0,.652-.523,2.837,2.837,0,0,0,.4-.744,3.107,3.107,0,0,0,.126-.884,5.1,5.1,0,0,0-.105-1,2.566,2.566,0,0,0-.337-.844,1.9,1.9,0,0,0-.631-.583,2.186,2.186,0,0,0-1.009-.221,1.729,1.729,0,0,0-.883.2,2.015,2.015,0,0,0-.631.543,1.94,1.94,0,0,0-.357.784,3.376,3.376,0,0,0-.105.925,4.616,4.616,0,0,0,.105.925,2.218,2.218,0,0,0,.336.824,1.9,1.9,0,0,0,.61.6,1.729,1.729,0,0,0,.946.241A2.479,2.479,0,0,0,261.263,22.072Z" transform="translate(-237.035 -12.465)" fill="#fff"/>
        <path id="Trazado_121" data-name="Trazado 121" d="M307.571,22.413a2.293,2.293,0,0,0,1.6.523,2.224,2.224,0,0,0,1.283-.362,1.509,1.509,0,0,0,.652-.744h2.166a3.931,3.931,0,0,1-1.6,2.211,4.849,4.849,0,0,1-2.608.663,5.215,5.215,0,0,1-1.914-.322,3.84,3.84,0,0,1-1.43-.925,3.912,3.912,0,0,1-.9-1.427A5.079,5.079,0,0,1,304.5,20.2a4.533,4.533,0,0,1,.337-1.789,4.131,4.131,0,0,1,2.376-2.372,4.688,4.688,0,0,1,1.872-.342,4.47,4.47,0,0,1,2,.422,3.95,3.95,0,0,1,1.388,1.126,4.536,4.536,0,0,1,.778,1.628,5.74,5.74,0,0,1,.168,1.909h-6.457A2.305,2.305,0,0,0,307.571,22.413Zm2.776-4.522A1.8,1.8,0,0,0,309,17.428a2.394,2.394,0,0,0-.988.181,2.089,2.089,0,0,0-.631.462,1.724,1.724,0,0,0-.337.6,2,2,0,0,0-.105.563h4A2.462,2.462,0,0,0,310.347,17.891Z" transform="translate(-275.414 -12.625)" fill="#fff"/>
        <path id="Trazado_122" data-name="Trazado 122" d="M356.661.4V12.218H354.2V.4Z" transform="translate(-314.661 -0.4)" fill="#fff"/>
      </g>
    </g>
  </g>
</svg>
