<svg id="Grupo_10288" data-name="Grupo 10288" xmlns="http://www.w3.org/2000/svg" width="101.514" height="19.929" viewBox="0 0 101.514 19.929">
  <path id="Trazado_1806" data-name="Trazado 1806" d="M2.651,0A2.667,2.667,0,0,0,0,2.675V19.81H17.16a2.647,2.647,0,0,0,2.651-2.651V0H2.651ZM15.172,14.3,4.615,16.189V5.538L15.172,3.645Z" fill="#fff" fill-rule="evenodd"/>
  <path id="Trazado_1807" data-name="Trazado 1807" d="M134.729,15.369c-3.124,0-5.325,2.249-5.349,5.893a5.284,5.284,0,0,0,5.349,5.373,4.971,4.971,0,0,0,3.2-.734V24.056a6.226,6.226,0,0,1-2.674.544,3.03,3.03,0,0,1-3.243-2.367l-.024-.142h1.965a9.011,9.011,0,0,0,3.929-.568,2,2,0,0,0,1.16-2.012,4.111,4.111,0,0,0-4.308-4.142m1.278,4.781a8.4,8.4,0,0,1-2.627.26h-1.373l.024-.142.024-.379a2.5,2.5,0,0,1,2.438-2.462,2.6,2.6,0,0,1,1.609.45,1.621,1.621,0,0,1,.615,1.325.92.92,0,0,1-.71.947m4.4-.568v6.864h2.556v-6.39a2.87,2.87,0,0,1,.521-1.893A1.928,1.928,0,0,1,145,17.57a5.511,5.511,0,0,1,.686.047V15.606a2.867,2.867,0,0,0-1.3-.284c-2.84.047-3.953,2.083-3.976,4.26M106.8,26.47h2.556V12.6H106.8Zm9.42-11.1a4.511,4.511,0,0,0-4.9,4.639V26.47h2.556v-6.3a2.875,2.875,0,0,1,.592-1.893,1.975,1.975,0,0,1,1.562-.686,2.149,2.149,0,0,1,1.728.686,3.2,3.2,0,0,1,.639,2.106V26.47h2.533V20.15a4.539,4.539,0,0,0-4.71-4.781m9.16-2.769h-2.509V22.612c0,2.556,1.3,4.047,4.071,4.047a2.215,2.215,0,0,0,2.177-.994V24.079a4.515,4.515,0,0,1-1.846.284,1.809,1.809,0,0,1-1.4-.5,2.26,2.26,0,0,1-.5-1.609V17.594H127.6c1.089,0,1.538-.686,1.538-1.183V15.393H125.38Z" transform="translate(-81.522 -9.618)" fill="#fff"/>
  <path id="Trazado_1808" data-name="Trazado 1808" d="M361.3,28.489v6.888h2.556v-6.39a2.758,2.758,0,0,1,.521-1.87,1.929,1.929,0,0,1,1.515-.592,6.3,6.3,0,0,1,.71.047V24.56a2.817,2.817,0,0,0-1.3-.26c-2.864,0-4,2.012-4,4.189" transform="translate(-275.786 -18.549)" fill="#fff"/>
  <path id="Trazado_1809" data-name="Trazado 1809" d="M318.236,24.2c-3.361,0-5.136,2.6-5.136,5.87,0,2.888,1.8,5.325,4.923,5.325,3.337,0,5.136-2.438,5.136-5.7,0-2.888-1.8-5.491-4.923-5.491m0,8.876c-1.775,0-2.532-1.183-2.532-3.385,0-1.846.781-3.172,2.32-3.172,1.751,0,2.533,1.325,2.533,3.574,0,1.822-.757,2.982-2.32,2.982" transform="translate(-238.994 -18.472)" fill="#fff"/>
  <path id="Trazado_1810" data-name="Trazado 1810" d="M276.487,30.525l.024.142a3.093,3.093,0,0,0,3.03,2.722,5.959,5.959,0,0,0,2.675-.544V34.6a4.94,4.94,0,0,1-3.2.97,5.372,5.372,0,0,1-5.42-5.373c0-3.645,2.272-5.87,5.4-5.893h.024a4.818,4.818,0,0,1,3.2.947V27a5.959,5.959,0,0,0-2.675-.544,3.073,3.073,0,0,0-3.03,2.7,5.011,5.011,0,0,0-.024,1.373" transform="translate(-208.843 -18.549)" fill="#fff"/>
  <path id="Trazado_1811" data-name="Trazado 1811" d="M392.031,24.7c-3.692,0-5.231,2.509-5.231,6.13v6.059a1.824,1.824,0,0,0,1.823,1.893h.8V34.5a2.936,2.936,0,0,0,2.627,1.467c3.053,0,4.71-2.391,4.71-5.893.024-2.746-1.964-5.373-4.734-5.373m-.047,9.018c-1.562,0-2.58-1.231-2.58-3.432,0-1.893.781-3.2,2.225-3.2,1.657,0,2.485,1.112,2.485,3.692,0,1.751-.876,2.935-2.13,2.935" transform="translate(-295.25 -18.854)" fill="#fff"/>
</svg>
