<svg xmlns="http://www.w3.org/2000/svg" width="40" height="40" viewBox="0 0 40 40">
  <g id="Grupo_18442" data-name="Grupo 18442" transform="translate(-1106 -133.285)">
    <g id="Grupo_18441" data-name="Grupo 18441">
      <g id="Rectángulo_1840" data-name="Rectángulo 1840" transform="translate(1106 133.285)" fill="none" stroke="#8b9099" stroke-width="1">
        <rect width="40" height="40" rx="5" stroke="none"/>
        <rect x="0.5" y="0.5" width="39" height="39" rx="4.5" fill="none"/>
      </g>
    </g>
    <g id="Grupo_3094" data-name="Grupo 3094" transform="translate(1123 147.285)">
      <g id="facebook-logo">
        <path id="Trazado_26" data-name="Trazado 26" d="M28.743,0,27.081,0a2.918,2.918,0,0,0-3.073,3.153V4.607h-1.67a.261.261,0,0,0-.261.261V6.974a.261.261,0,0,0,.261.261h1.67V12.55a.261.261,0,0,0,.261.261h2.179a.261.261,0,0,0,.261-.261V7.235h1.953a.261.261,0,0,0,.261-.261V4.868a.261.261,0,0,0-.261-.261H26.71V3.374c0-.592.141-.893.913-.893h1.119A.261.261,0,0,0,29,2.22V.264A.261.261,0,0,0,28.743,0Z" transform="translate(-22.077)" fill="#8b9099"/>
      </g>
    </g>
  </g>
</svg>
