<svg xmlns="http://www.w3.org/2000/svg" width="27.326" height="44.937" viewBox="0 0 27.326 44.937">
  <g id="Grupo_10259" data-name="Grupo 10259" transform="translate(-1006 -1367.963)">
    <g id="Grupo_10258" data-name="Grupo 10258" transform="translate(1006 1367.963)">
      <g id="Grupo_10256" data-name="Grupo 10256" transform="translate(1.264 35.065)">
        <g id="Grupo_10255" data-name="Grupo 10255">
          <g id="Grupo_10254" data-name="Grupo 10254">
            <path id="Trazado_5421" data-name="Trazado 5421" d="M1.679,53.087H2.39a.077.077,0,0,0,.079-.079v-4.5a.077.077,0,0,0-.079-.079H1.6V47.243H4.364c.079,0,.079,0,.079.079v5.607a.077.077,0,0,0,.079.079h.711v1.106H1.679Zm.711-7.661A1.045,1.045,0,0,1,3.416,44.4a1.027,1.027,0,1,1,0,2.053A1.045,1.045,0,0,1,2.39,45.427Z" transform="translate(-1.6 -44.4)" fill="#000425"/>
            <path id="Trazado_5422" data-name="Trazado 5422" d="M14.429,53.361a.077.077,0,0,1-.079-.079v-7.5c0-.079,0-.079-.079-.079H11.507v1.106h.79a.077.077,0,0,1,.079.079v1.422a2.346,2.346,0,0,0-1.974-.869c-1.343,0-3,1.027-3,3.633s1.5,3.475,2.922,3.475a2.958,2.958,0,0,0,2.132-.869v.395a.423.423,0,0,0,.395.395h2.369V53.361Zm-3.554.079c-.79,0-1.58-.474-1.58-2.369,0-1.737.79-2.29,1.737-2.29a3.016,3.016,0,0,1,1.264.474v3.554A2.385,2.385,0,0,1,10.875,53.44Z" transform="translate(-2.819 -44.673)" fill="#000425"/>
            <path id="Trazado_5423" data-name="Trazado 5423" d="M18.2,52.975c0-1.422,1.185-2.132,2.764-2.132A7.083,7.083,0,0,1,22.386,51V50.29c0-.711-.395-1.027-1.185-1.027-1.106,0-1.422.316-1.58.632h-.869V48.553a.077.077,0,0,1,.079-.079A6.364,6.364,0,0,1,21.675,48c1.816,0,2.764.553,2.764,2.132v3.633c0,.079,0,.079.079.079h.632V54.95H22.939a.373.373,0,0,1-.395-.395V54.16a2.33,2.33,0,0,1-1.974.869C19.148,55.029,18.2,54.318,18.2,52.975Zm4.186.395V52.028a4,4,0,0,0-1.027-.158c-.79,0-1.264.316-1.264,1.027s.395,1.027,1.106,1.027A1.68,1.68,0,0,0,22.386,53.37Z" transform="translate(-5.09 -45.157)" fill="#000425"/>
            <path id="Trazado_5424" data-name="Trazado 5424" d="M27.679,47.6h.711V45.7h1.9v1.9h1.422V48.78H30.285v4.581a.077.077,0,0,0,.079.079h1.343v1.106h-3a.423.423,0,0,1-.395-.395V48.78H27.6V47.6Z" transform="translate(-7.066 -44.673)" fill="#000425"/>
          </g>
        </g>
      </g>
      <g id="Grupo_10257" data-name="Grupo 10257">
        <path id="Trazado_5425" data-name="Trazado 5425" d="M9.4,0A3.673,3.673,0,0,0,5.607,3.4h0a.887.887,0,0,1-.79.948h0A3.512,3.512,0,0,0,1.974,7.661a2.523,2.523,0,0,0,.237,1.106h0c0,.079.079.158.079.237a.845.845,0,0,1-.316.948H1.9a.077.077,0,0,0-.079.079h0A3.249,3.249,0,0,0,0,12.952a3.3,3.3,0,0,0,.553,1.816h0s.632.79.237,1.422c-.079.079-.079.158-.158.158h0A3.914,3.914,0,0,0,0,18.4a3.333,3.333,0,0,0,1.264,2.606h0a1.227,1.227,0,0,1,.316,1.264h0a3.577,3.577,0,0,0-.237,1.264A3.687,3.687,0,0,0,4.9,27.01H4.818a1.052,1.052,0,0,1,.869.869h0a3.713,3.713,0,0,0,3.791,2.843A3.667,3.667,0,0,0,13.268,27.4h0V17.375a.17.17,0,0,0-.158-.158c-.632.079-3.317.474-3.475.553-.158,0-.158-.079-.158-.158S13.268,3.475,13.268,3.475A3.707,3.707,0,0,0,9.4,0Z" fill="#000425"/>
        <path id="Trazado_5426" data-name="Trazado 5426" d="M30.436,14.847h0a3.073,3.073,0,0,0,.553-1.816,3.461,3.461,0,0,0-1.816-3h0a.077.077,0,0,1-.079-.079h-.079a.715.715,0,0,1-.316-.869c0-.079.079-.158.079-.237h0a2.523,2.523,0,0,0,.237-1.106,3.512,3.512,0,0,0-2.843-3.317h0a.887.887,0,0,1-.79-.948h0A3.584,3.584,0,0,0,21.591,0,3.634,3.634,0,0,0,17.8,3.475V13.5a.17.17,0,0,0,.158.158c.079,0,2.843-.474,3.475-.553.158,0,.158.079.158.158S17.8,27.4,17.8,27.4h0a3.667,3.667,0,0,0,3.791,3.317,3.793,3.793,0,0,0,3.791-2.843h0a1.052,1.052,0,0,1,.869-.869h-.079a3.687,3.687,0,0,0,3.554-3.475,3.274,3.274,0,0,0-.237-1.264h0a1.142,1.142,0,0,1,.316-1.264h0A3.333,3.333,0,0,0,31.068,18.4a3.37,3.37,0,0,0-.79-2.132C29.8,15.637,30.436,14.847,30.436,14.847Z" transform="translate(-3.742)" fill="#000425"/>
      </g>
    </g>
  </g>
</svg>
