<svg id="Layer_2" data-name="Layer 2" xmlns="http://www.w3.org/2000/svg" width="50" height="50" viewBox="0 0 50 50">
  <g id="briefcase">
    <rect id="Rectángulo_1451" data-name="Rectángulo 1451" width="50" height="50" fill="#5640ff" opacity="0"/>
    <path id="Trazado_7157" data-name="Trazado 7157" d="M37.417,11.333h-6.25V8.208A5.208,5.208,0,0,0,25.958,3h-6.25A5.208,5.208,0,0,0,14.5,8.208v3.125H8.25A6.25,6.25,0,0,0,2,17.583V34.25A6.25,6.25,0,0,0,8.25,40.5H37.417a6.25,6.25,0,0,0,6.25-6.25V17.583A6.25,6.25,0,0,0,37.417,11.333ZM29.083,15.5V36.333h-12.5V15.5ZM18.667,8.208a1.042,1.042,0,0,1,1.042-1.042h6.25A1.042,1.042,0,0,1,27,8.208v3.125H18.667ZM6.167,34.25V17.583A2.083,2.083,0,0,1,8.25,15.5h4.167V36.333H8.25A2.083,2.083,0,0,1,6.167,34.25Zm33.333,0a2.083,2.083,0,0,1-2.083,2.083H33.25V15.5h4.167A2.083,2.083,0,0,1,39.5,17.583Z" transform="translate(2.167 3.25)" fill="#5640ff"/>
  </g>
</svg>
