<svg id="Layer_2" data-name="Layer 2" xmlns="http://www.w3.org/2000/svg" width="50" height="50" viewBox="0 0 50 50">
  <g id="people">
    <rect id="Rectángulo_1591" data-name="Rectángulo 1591" width="50" height="50" fill="#5640ff" opacity="0"/>
    <path id="Trazado_7378" data-name="Trazado 7378" d="M13.333,19.667A8.333,8.333,0,1,0,5,11.333a8.333,8.333,0,0,0,8.333,8.333Zm0-12.5a4.167,4.167,0,1,1-4.167,4.167A4.167,4.167,0,0,1,13.333,7.167Z" transform="translate(5.417 3.25)" fill="#5640ff"/>
    <path id="Trazado_7379" data-name="Trazado 7379" d="M20.25,19.5A6.25,6.25,0,1,0,14,13.25,6.25,6.25,0,0,0,20.25,19.5Zm0-8.333a2.083,2.083,0,1,1-2.083,2.083A2.083,2.083,0,0,1,20.25,11.167Z" transform="translate(15.167 7.583)" fill="#5640ff"/>
    <path id="Trazado_7380" data-name="Trazado 7380" d="M33.25,15.073a10.417,10.417,0,0,0-6.375,2.188A14.583,14.583,0,0,0,2,27.573a2.083,2.083,0,1,0,4.167,0,10.417,10.417,0,0,1,20.833,0,2.083,2.083,0,0,0,4.167,0,14.375,14.375,0,0,0-1.792-6.979A6.25,6.25,0,0,1,39.5,25.49a2.083,2.083,0,1,0,4.167,0A10.417,10.417,0,0,0,33.25,15.073Z" transform="translate(2.167 14.093)" fill="#5640ff"/>
  </g>
</svg>
