<svg id="Layer_2" data-name="Layer 2" xmlns="http://www.w3.org/2000/svg" width="24" height="24" viewBox="0 0 24 24">
  <g id="plus-circle">
    <rect id="Rectángulo_1605" data-name="Rectángulo 1605" width="24" height="24" fill="#fff" opacity="0"/>
    <path id="Trazado_7413" data-name="Trazado 7413" d="M12,2A10,10,0,1,0,22,12,10,10,0,0,0,12,2Zm0,18a8,8,0,1,1,8-8A8,8,0,0,1,12,20Z" fill="#fff"/>
    <path id="Trazado_7414" data-name="Trazado 7414" d="M15,11H13V9a1,1,0,0,0-2,0v2H9a1,1,0,0,0,0,2h2v2a1,1,0,0,0,2,0V13h2a1,1,0,0,0,0-2Z" fill="#fff"/>
  </g>
</svg>
