<svg xmlns="http://www.w3.org/2000/svg" width="233" height="58.25" viewBox="0 0 233 58.25">
  <g id="Grupo_18437" data-name="Grupo 18437" transform="translate(-187.71 -268.386)">
    <g id="Grupo_18368" data-name="Grupo 18368" transform="translate(253.191 283.028)">
      <path id="Trazado_16540" data-name="Trazado 16540" d="M1037.287,353.244q-.054.478-.129.953c-.422,2.675-1.175,5.658-3.35,7.458a8.4,8.4,0,0,1-5.482,1.743,5.6,5.6,0,0,1-5.918-6.132,19.585,19.585,0,0,1,1.269-6.227,8.118,8.118,0,0,1,10.505-4.41,5.02,5.02,0,0,1,2.691,2.768,5.116,5.116,0,0,1,.536,2.274Q1037.376,352.459,1037.287,353.244Zm-10.891,3.421c-.034,2.919,1.913,4.1,4.2,2.913a3.507,3.507,0,0,0,1.684-1.9,16.954,16.954,0,0,0,1.074-5.445c.089-2.078-1.557-3.161-3.623-2.525a3.5,3.5,0,0,0-2.285,2.14A21.545,21.545,0,0,0,1026.4,356.665Z" transform="translate(-869.893 -340.137)"/>
      <path id="Trazado_16541" data-name="Trazado 16541" d="M569.583,346.373a26.391,26.391,0,0,1,4.819.578,2.41,2.41,0,0,1,.932.336,1.114,1.114,0,0,1,.353,1.24c-.895,4.862-1.722,9.736-2.6,14.6-.848,4.711-2.725,6.242-7.568,6.214a17.462,17.462,0,0,1-4.963-.928c-1.369-.414-1.108-1.315-.911-2.26.238-1.147,1.03-.615,1.649-.507a17.832,17.832,0,0,0,5.552.421,2.3,2.3,0,0,0,1.507-.683c.438-.5.868-1.159.586-1.762-.241-.517-.931-.136-1.413-.077a8.49,8.49,0,0,1-3.975-.428,4.441,4.441,0,0,1-3.185-4.042,18.293,18.293,0,0,1,1.56-8.88C563.292,347.141,566.421,346.332,569.583,346.373Zm-2.042,13.966c.276-.017.84-.05,1.4-.086a.83.83,0,0,0,.844-.805c.5-2.907,1.03-5.808,1.53-8.715.052-.3.21-.655-.24-.9a4.493,4.493,0,0,0-5.775,2.04,20.336,20.336,0,0,0-1.037,5.087C563.93,359.648,564.6,360.373,567.542,360.339Z" transform="translate(-527.678 -340.375)"/>
      <path id="Trazado_16542" data-name="Trazado 16542" d="M447.3,325.679a13.108,13.108,0,0,1,4.27.5,5.414,5.414,0,0,1,3.915,6.235c-.752,4.5-3.661,7.111-8.25,7.352a30.577,30.577,0,0,1-3.373-.009c-.725-.042-.969.2-1.074.913-.3,2.055-.707,4.1-1.046,6.147-.138.835-.462,1.321-1.43,1.294-3.328-.09-3.049.456-2.464-2.865,1.038-5.886,2.089-11.77,3.073-17.665.208-1.243,1.454-1.662,2.573-1.706C444.734,325.821,446.019,325.7,447.3,325.679ZM445.756,336.4c3.426.066,5.115-1.173,5.606-4.11a2.27,2.27,0,0,0-2.085-2.967,15.082,15.082,0,0,0-3.757-.065c-.6.046-.81.275-.9.852-.2,1.37-.487,2.728-.731,4.092C443.507,336.356,443.509,336.356,445.756,336.4Z" transform="translate(-437.485 -325.075)"/>
      <path id="Trazado_16543" data-name="Trazado 16543" d="M703.347,326.194c.354.048.995-.014,1.184.383a.9.9,0,0,1-.015.568c-.217,1.046.027,2.3-1.408,2.335-1.866.04-3.734,0-5.6.014-1.744.01-2.42.556-2.789,2.269-.182.847-.271,1.716-.475,2.558-.175.727.089.914.776.906,2.127-.026,4.257.034,6.382-.026,1.083-.031,1.35.313,1.143,1.379-.379,1.953-.347,1.99-2.285,1.991-1.954,0-3.908.005-5.862,0-.509,0-.936.022-1.022.693-.159,1.247-.442,2.48-.55,3.73-.125,1.447.322,1.889,1.776,1.907,1.867.023,3.735.04,5.6-.008.9-.023,1.11.331,1.015,1.172-.2,1.809-.381,2.044-2.184,2.2a22.951,22.951,0,0,1-6.612.015c-2.717-.555-4.107-2.267-3.769-5.02a125.841,125.841,0,0,1,2.191-12.552c.715-3.142,2.65-4.529,6.142-4.773.734-.051,1.475-.007,2.213-.007" transform="translate(-623.129 -325.245)"/>
      <path id="Trazado_16544" data-name="Trazado 16544" d="M796.113,356.083c-1.39,0-2.781.031-4.169-.013-.72-.022-1,.225-1.032.954a2.379,2.379,0,0,0,2.191,2.84,12.627,12.627,0,0,0,5.516-.6c1.437-.381,1.462-.29,1.32,1.122a2.309,2.309,0,0,1-1.961,2.214,16.546,16.546,0,0,1-5.127.734c-3.754-.171-5.855-2.33-5.795-6.071a18.263,18.263,0,0,1,1.235-6.352,8.013,8.013,0,0,1,10.389-4.32,4.979,4.979,0,0,1,2.894,3.473,8.26,8.26,0,0,1,.268,1.8c.191,3.8-.207,4.216-3.906,4.216Zm-1.385-2.841c.778,0,1.556,0,2.333,0,.41,0,.736-.027.871-.541a2.5,2.5,0,0,0-2.1-3.137,3.52,3.52,0,0,0-3.888,2.339c-.358.875-.469,1.5.841,1.351A17.125,17.125,0,0,1,794.728,353.243Z" transform="translate(-695.91 -340.104)"/>
      <path id="Trazado_16545" data-name="Trazado 16545" d="M633.7,346.622c4.167-.006,6.251,2.116,6.053,6.3a19.2,19.2,0,0,1-1.194,5.833,7.913,7.913,0,0,1-9.871,4.749,5.39,5.39,0,0,1-3.787-4.939,17.166,17.166,0,0,1,.914-6.135C626.96,348.5,629.58,346.628,633.7,346.622ZM632.957,350a3.253,3.253,0,0,0-2.966,2.09,15.153,15.153,0,0,0-1.164,5.813c-.029,1.784,1.265,2.736,3.039,2.473a3.363,3.363,0,0,0,2.78-2.073,16.013,16.013,0,0,0,1.166-5.814C635.866,350.862,634.879,350.009,632.957,350Z" transform="translate(-576.012 -340.561)"/>
      <path id="Trazado_16546" data-name="Trazado 16546" d="M508.362,363.655a11.23,11.23,0,0,1-3.972-.542,3.5,3.5,0,0,1-2.536-3.665c-.005-3.616,1.776-5.608,5.35-5.911a21.8,21.8,0,0,1,3.51-.084c1.205.094,1.33-.575,1.418-1.484.095-.979.126-1.872-1.1-2.126a10.783,10.783,0,0,0-5.4.569,1.381,1.381,0,0,1-.552.114.659.659,0,0,1-.56-.445,1.136,1.136,0,0,1-.023-.464,3.937,3.937,0,0,1,.5-1.827c.48-.7,1.566-.808,2.33-.989a11.926,11.926,0,0,1,6.419.091,3.55,3.55,0,0,1,2.418,4.026c-.225,2.325-.707,4.625-1.092,6.934-.214,1.283-.514,2.554-.671,3.843a1.431,1.431,0,0,1-1.275,1.387A21.576,21.576,0,0,1,508.362,363.655Zm.193-3.026c2.063.009,2.068,0,2.415-1.951.486-2.74.486-2.74-2.394-2.6-1.886.092-2.843,1.091-2.756,2.878C505.877,360.146,506.654,360.621,508.555,360.628Z" transform="translate(-485.071 -340.401)"/>
      <path id="Trazado_16547" data-name="Trazado 16547" d="M749.105,323.375c.086.005.475.02.862.056,1.754.162,1.822.326,1.475,2-.185.9-.712.925-1.412.931-2.052.019-2.453.43-2.771,2.439-.112.706.137.85.73.818.26-.014.521,0,.782,0,1.864.005,1.829,0,1.526,1.782-.157.923-.631,1.191-1.518,1.188-2.122-.007-2.141.024-2.522,2.108-.74,4.052-1.506,8.1-2.166,12.166-.694,4.274-3.928,4.879-7.466,4.263a.78.78,0,0,1-.633-.441.9.9,0,0,1,0-.422q.066-.424.126-.85a1.6,1.6,0,0,1,.159-.673.972.972,0,0,1,.813-.457c2.862-.3,2.849-.33,3.355-3.2.649-3.673,1.276-7.35,2-11.008.24-1.215-.031-1.7-1.314-1.79-1.593-.11-1.783-.555-1.29-1.979.284-.822.924-.736,1.489-.671,1.333.155,1.968-.217,2.211-1.7C744.093,324.567,745.332,323.608,749.105,323.375Z" transform="translate(-658.142 -323.375)"/>
      <path id="Trazado_16548" data-name="Trazado 16548" d="M972.272,347.216a4.761,4.761,0,0,1,1.525.118.813.813,0,0,1,.5.75c.052.345.06.7.078,1.046q.271,5.326.567,10.651c.022.4-.171.99.423,1.073.543.076.64-.516.793-.89,1.528-3.728,3.08-7.447,4.521-11.208a2.015,2.015,0,0,1,2.258-1.553c3.058.084,2.661-.046,1.572,2.408-1.74,3.92-3.525,7.82-5.315,11.718a4.417,4.417,0,0,1-4.607,2.9,2.608,2.608,0,0,1-2.8-2.51q-.412-3.57-.783-7.144-.172-1.662-.332-3.325-.14-1.458-.28-2.916a1.136,1.136,0,0,1,.175-.91,1.174,1.174,0,0,1,.968-.2A7.185,7.185,0,0,0,972.272,347.216Z" transform="translate(-831.432 -340.989)"/>
      <path id="Trazado_16549" data-name="Trazado 16549" d="M905.726,354.442c-3.288-.015-4.456-1.249-4.035-4.367.382-2.83.915-5.642,1.474-8.443.206-1.033-.092-1.448-1.094-1.474a3.351,3.351,0,0,1-.774-.093c-.5-.135-1.283-.032-1.114-.9.142-.739-.021-1.788,1.261-1.729.087,0,.173,0,.26,0,2.094-.063,2.136-.055,2.519-2.017a1.2,1.2,0,0,1,.88-1.068q.687-.156,1.382-.272a3.646,3.646,0,0,1,1.291-.107c.442.09.476.512.453.895a13.652,13.652,0,0,1-.237,1.6,1.2,1.2,0,0,0,.026.713c.121.248.406.255.647.26.512.01,1.019.019,1.531,0a.813.813,0,0,1,.628.155.827.827,0,0,1,.139.673c-.169,1.543-.093,2.3-1.713,2.1-1.528-.189-2.089.329-2.266,1.88-.293,2.577-.845,5.125-1.334,7.677-.2,1.026.142,1.416,1.183,1.478.615.037,1.625-.555,1.8.547.242,1.492-.418,2.222-1.911,2.419C906.342,354.408,905.952,354.424,905.726,354.442Z" transform="translate(-779.525 -331.181)"/>
      <path id="Trazado_16550" data-name="Trazado 16550" d="M856.776,346.565a6.964,6.964,0,0,1,3.616.806,1.1,1.1,0,0,1,.732,1.155,11.066,11.066,0,0,1-.5,1.651.594.594,0,0,1-.133.265.6.6,0,0,1-.559.052c-1.642-.4-3.99-1.192-5.509,0-1.177.923-1.517,2.686-1.795,4.063-.2.977-.368,1.964-.473,2.954-.209,1.966.715,2.975,2.711,2.867a12.2,12.2,0,0,0,2.931-.546c1.071-.333,1.109.01,1.049.97a2.516,2.516,0,0,1-2.321,2.628,12.594,12.594,0,0,1-3.1.316,5.441,5.441,0,0,1-5.238-6.3,35.523,35.523,0,0,1,1.037-5.362C850.258,348.387,852.777,346.57,856.776,346.565Z" transform="translate(-741.074 -340.504)"/>
      <path id="Trazado_16551" data-name="Trazado 16551" d="M943.286,347.339c.347,0,.694.011,1.04,0,.694-.028.916.287.8.961q-1.306,7.351-2.586,14.707c-.145.833-.627,1.1-1.458,1.118-2.775.044-2.753.075-2.263-2.62.742-4.088,1.455-8.182,2.173-12.275C941.319,347.336,941.31,347.334,943.286,347.339Z" transform="translate(-807.915 -341.087)"/>
      <path id="Trazado_16552" data-name="Trazado 16552" d="M952.9,327.749q-.333,0-.666.005a2.609,2.609,0,0,1-1.011-.053c-.41-.166-.444-.619-.385-1,.009-.059.019-.119.033-.176.1-.464.2-.931.255-1.4a1.177,1.177,0,0,1,1.375-1.2c.086.005.173,0,.26,0,2.832-.052,2.772-.063,2.269,2.719a1.435,1.435,0,0,1-.46.9,1.813,1.813,0,0,1-1.191.211Q953.137,327.75,952.9,327.749Z" transform="translate(-816.97 -323.769)"/>
    </g>
    <g id="Grupo_18370" data-name="Grupo 18370" transform="translate(187.71 268.386)">
      <g id="CNvS4V.tif" transform="translate(0 0)">
        <g id="Grupo_18369" data-name="Grupo 18369">
          <path id="Trazado_16553" data-name="Trazado 16553" d="M187.713,294a69.621,69.621,0,0,1,2.824-19.883c1.693-5.267,3.475-6.337,8.87-5.454,5.714.936,10.963,3.257,16.079,5.845a101.341,101.341,0,0,1,19.621,12.671,36.833,36.833,0,0,1,6.758,7.033c1.89,2.718,1.9,4.193-.091,6.776a45.673,45.673,0,0,1-10.654,9.426c-8.8,6.066-18,11.351-28.168,14.748a32.767,32.767,0,0,1-5.553,1.348c-3.24.483-4.8-.391-6.086-3.435a37.618,37.618,0,0,1-2.367-9.032A121.928,121.928,0,0,1,187.713,294Z" transform="translate(-187.71 -268.386)" fill="#fecb00"/>
        </g>
      </g>
      <path id="Trazado_16554" data-name="Trazado 16554" d="M213.468,351.192q1.267-6.749,2.877-13.427a1.96,1.96,0,0,1,2.129-1.493c1.356-.033,2.7-.131,4.056-.085,1.142.039,2.285.041,3.428.038.807,0,2.023-.2,2.338.8a8.333,8.333,0,0,1-.072,2.577c-.007.319.238.34.46.174.718-.534,1.343-1.218,2.019-1.806q1.092-.95,2.183-1.9c1.6-1.4,3.216-2.793,4.814-4.2a.657.657,0,0,0,.194-.232.526.526,0,0,0-.1-.478c-.927-1.338-2.038-2.544-3.055-3.814-1.059-1.27-2.059-2.591-3.1-3.877-.171-.211-.339-.423-.517-.627-.068-.079-.23-.331-.322-.275-.107.065-.117.338-.143.446-.18.732-.4,1.455-.6,2.182-.147.529-.667.574-1.147.574H224.1a45.422,45.422,0,0,1-4.652-.038.613.613,0,0,1-.457-.188.62.62,0,0,1-.012-.526c.263-.921.588-1.824.834-2.751a2.64,2.64,0,0,1,3.1-2.234c4.234.165,8.485.171,12.727.171a11.25,11.25,0,0,1,6.277,1.892c3.157,2.329,3.813,6.6,3.074,10.233a13.075,13.075,0,0,1-7.053,9.057,15.542,15.542,0,0,1-4.991,1.5,36.794,36.794,0,0,1-4.719.281c-1.5,0-3.005-.128-4.5-.222a1.678,1.678,0,0,0-.707.057c-.51.2-.7.808-.817,1.342l-1.983,8.792a.835.835,0,0,1-.225.479.821.821,0,0,1-.458.141,24.52,24.52,0,0,1-5.435-.082.8.8,0,0,1-.887-1.09Q213.338,351.887,213.468,351.192Z" transform="translate(-206.531 -306.217)"/>
    </g>
  </g>
</svg>
