<svg id="Layer_2" data-name="Layer 2" xmlns="http://www.w3.org/2000/svg" width="50" height="50" viewBox="0 0 50 50">
  <g id="monitor">
    <rect id="Rectángulo_1576" data-name="Rectángulo 1576" width="50" height="50" fill="#5640ff" opacity="0"/>
    <path id="Trazado_7360" data-name="Trazado 7360" d="M41.1,3H8.9A7.127,7.127,0,0,0,2,10.333V29.889a7.127,7.127,0,0,0,6.9,7.333H22.7v4.889H13.5A2.449,2.449,0,0,0,13.5,47h23a2.449,2.449,0,0,0,0-4.889H27.3V37.222H41.1A7.127,7.127,0,0,0,48,29.889V10.333A7.127,7.127,0,0,0,41.1,3Zm2.3,26.889a2.376,2.376,0,0,1-2.3,2.444H8.9a2.376,2.376,0,0,1-2.3-2.444V10.333A2.376,2.376,0,0,1,8.9,7.889H41.1a2.376,2.376,0,0,1,2.3,2.444Z" transform="translate(0 0)" fill="#5640ff"/>
  </g>
</svg>
